<?xml version="1.0" encoding="UTF-8"?>
<!DOCTYPE svg PUBLIC "-//W3C//DTD SVG 1.1//EN" "http://www.w3.org/Graphics/SVG/1.1/DTD/svg11.dtd">
<svg xmlns="http://www.w3.org/2000/svg" version="1.1" width="45px" height="45px" style="shape-rendering:geometricPrecision; text-rendering:geometricPrecision; image-rendering:optimizeQuality; fill-rule:evenodd; clip-rule:evenodd" xmlns:xlink="http://www.w3.org/1999/xlink">
<g><path style="opacity:0.995" fill="#e21b1b" d="M 232.5,-0.5 C 247.833,-0.5 263.167,-0.5 278.5,-0.5C 368.144,10.3879 435.644,54.7213 481,132.5C 497.695,163.971 507.861,197.304 511.5,232.5C 511.5,247.833 511.5,263.167 511.5,278.5C 510.412,286.205 509.078,293.871 507.5,301.5C 507.66,299.801 507.494,298.134 507,296.5C 463.224,252.557 419.39,208.89 375.5,165.5C 333.66,115.614 280.66,97.4475 216.5,111C 169.056,125.781 135.556,155.948 116,201.5C 97.511,255.562 105.511,305.229 140,350.5C 147.066,359.067 154.899,366.734 163.5,373.5C 206.916,418.416 250.916,462.916 295.5,507C 297.473,507.495 299.473,507.662 301.5,507.5C 293.871,509.078 286.205,510.412 278.5,511.5C 263.167,511.5 247.833,511.5 232.5,511.5C 142.856,500.612 75.3562,456.279 30,378.5C 13.3053,347.029 3.1386,313.696 -0.5,278.5C -0.5,263.167 -0.5,247.833 -0.5,232.5C 10.3875,142.857 54.7208,75.3573 132.5,30C 163.971,13.3053 197.304,3.1386 232.5,-0.5 Z"/></g>
<g><path style="opacity:1" fill="#fefdfd" d="M 375.5,165.5 C 408.432,213.536 413.599,264.536 391,318.5C 358.657,380.063 307.49,408.563 237.5,404C 210.113,400.131 185.446,389.964 163.5,373.5C 154.899,366.734 147.066,359.067 140,350.5C 105.511,305.229 97.511,255.562 116,201.5C 135.556,155.948 169.056,125.781 216.5,111C 280.66,97.4475 333.66,115.614 375.5,165.5 Z"/></g>
<g><path style="opacity:1" fill="#c40706" d="M 239.5,146.5 C 296.82,142.725 336.653,167.058 359,219.5C 373.605,273.697 358.105,316.864 312.5,349C 260.616,375.894 214.116,368.727 173,327.5C 144.068,290.715 138.735,250.715 157,207.5C 174.91,174.135 202.41,153.801 239.5,146.5 Z"/></g>
<g><path style="opacity:1" fill="#c40606" d="M 375.5,165.5 C 419.39,208.89 463.224,252.557 507,296.5C 507.494,298.134 507.66,299.801 507.5,301.5C 491.752,381.058 448.752,440.892 378.5,481C 354.298,494.123 328.631,502.956 301.5,507.5C 299.473,507.662 297.473,507.495 295.5,507C 250.916,462.916 206.916,418.416 163.5,373.5C 185.446,389.964 210.113,400.131 237.5,404C 307.49,408.563 358.657,380.063 391,318.5C 413.599,264.536 408.432,213.536 375.5,165.5 Z"/></g>
</svg>
