<?xml version="1.0" encoding="UTF-8"?>
<svg xmlns="http://www.w3.org/2000/svg" xmlns:xlink="http://www.w3.org/1999/xlink" width="512px" height="512px" viewBox="0 0 384 384" version="1.1">
<g id="surface1">
<path style=" stroke:none;fill-rule:nonzero;fill:rgb(92.941176%,63.137255%,63.137255%);fill-opacity:1;" d="M 195.46875 382.761719 C 185.980469 382.894531 174.675781 382.679688 170.34375 382.285156 C 166.011719 381.886719 158.25 380.722656 153.09375 379.691406 C 147.9375 378.660156 138.800781 376.1875 132.789062 374.1875 C 126.777344 372.191406 117.8125 368.730469 112.871094 366.496094 C 107.929688 364.261719 99.855469 360.042969 94.925781 357.125 C 90 354.203125 82.585938 349.289062 78.453125 346.199219 C 74.320312 343.113281 67.664062 337.667969 63.660156 334.101562 C 59.65625 330.539062 53.5 324.386719 49.980469 320.433594 C 46.460938 316.480469 41.222656 310.113281 38.34375 306.28125 C 35.464844 302.449219 30.878906 295.648438 28.15625 291.171875 C 25.429688 286.695312 21.925781 280.5 20.367188 277.40625 C 18.8125 274.3125 15.988281 267.898438 14.09375 263.15625 C 12.203125 258.410156 9.640625 251.238281 8.398438 247.210938 C 7.160156 243.1875 5.332031 235.929688 4.335938 231.085938 C 3.339844 226.242188 2.097656 216.863281 1.574219 210.238281 C 0.96875 202.550781 0.796875 193.199219 1.105469 184.363281 C 1.371094 176.757812 1.890625 167.492188 2.261719 163.78125 C 2.632812 160.066406 3.820312 153.125 4.898438 148.351562 C 5.976562 143.578125 7.882812 136.515625 9.132812 132.652344 C 10.386719 128.792969 13.101562 121.519531 15.171875 116.484375 C 17.242188 111.453125 20.925781 103.75 23.363281 99.371094 C 25.796875 94.992188 29.714844 88.484375 32.070312 84.910156 C 34.421875 81.339844 39.050781 75.007812 42.351562 70.847656 C 45.652344 66.6875 52.09375 59.542969 56.664062 54.972656 C 61.230469 50.402344 68.375 43.964844 72.535156 40.664062 C 76.699219 37.359375 83.027344 32.734375 86.601562 30.378906 C 90.171875 28.027344 96.679688 24.109375 101.058594 21.675781 C 105.441406 19.238281 113.117188 15.566406 118.121094 13.515625 C 123.125 11.464844 130.453125 8.738281 134.402344 7.460938 C 138.351562 6.183594 145.269531 4.289062 149.777344 3.253906 C 154.28125 2.21875 161.34375 1.023438 165.46875 0.601562 C 169.59375 0.175781 179.042969 -0.371094 186.46875 -0.617188 C 194.550781 -0.886719 204.636719 -0.703125 211.59375 -0.160156 C 217.988281 0.335938 226.722656 1.425781 231.007812 2.261719 C 235.292969 3.09375 242.351562 4.792969 246.691406 6.039062 C 251.035156 7.28125 259.003906 10.074219 264.402344 12.246094 C 269.800781 14.414062 276.582031 17.386719 279.46875 18.851562 C 282.355469 20.316406 288.382812 23.742188 292.859375 26.464844 C 297.335938 29.191406 304.136719 33.773438 307.96875 36.65625 C 311.800781 39.535156 318.171875 44.773438 322.125 48.289062 C 326.078125 51.808594 332.226562 57.964844 335.792969 61.96875 C 339.355469 65.972656 344.800781 72.632812 347.886719 76.765625 C 350.976562 80.898438 355.894531 88.3125 358.8125 93.238281 C 361.734375 98.164062 365.949219 106.238281 368.183594 111.183594 C 370.417969 116.125 373.882812 125.085938 375.878906 131.097656 C 377.875 137.113281 380.34375 146.25 381.359375 151.40625 C 382.378906 156.5625 383.582031 165.167969 384.03125 170.53125 C 384.484375 175.894531 384.851562 185.175781 384.851562 191.15625 C 384.851562 197.136719 384.492188 206.417969 384.050781 211.78125 C 383.613281 217.144531 382.566406 225.242188 381.726562 229.78125 C 380.886719 234.316406 379.054688 241.8125 377.65625 246.433594 C 376.253906 251.050781 373.726562 258.308594 372.035156 262.558594 C 370.34375 266.804688 366.941406 274.242188 364.472656 279.082031 C 362.007812 283.917969 357.015625 292.355469 353.382812 297.832031 C 349.75 303.304688 343.585938 311.492188 339.6875 316.03125 C 335.792969 320.566406 329.429688 327.292969 325.546875 330.972656 C 321.667969 334.65625 315.957031 339.691406 312.855469 342.167969 C 309.753906 344.644531 303.167969 349.339844 298.21875 352.605469 C 293.269531 355.871094 283.820312 361.183594 277.21875 364.410156 C 270.621094 367.640625 261.300781 371.632812 256.511719 373.289062 C 251.71875 374.945312 243.496094 377.359375 238.234375 378.652344 C 232.972656 379.945312 225.078125 381.347656 220.691406 381.761719 C 216.308594 382.175781 204.957031 382.628906 195.46875 382.761719 Z M 195.46875 301.769531 C 204.726562 301.578125 210.210938 301.082031 215.492188 299.949219 C 219.496094 299.09375 225.738281 297.34375 229.367188 296.0625 C 233 294.78125 239.007812 292.210938 242.71875 290.347656 C 246.433594 288.488281 252.507812 284.902344 256.21875 282.382812 C 259.96875 279.835938 266.640625 274.132812 271.230469 269.542969 C 275.820312 264.949219 281.527344 258.28125 284.074219 254.53125 C 286.59375 250.816406 290.175781 244.742188 292.039062 241.03125 C 293.898438 237.316406 296.46875 231.308594 297.753906 227.671875 C 299.035156 224.039062 300.832031 217.625 301.746094 213.421875 C 303.140625 207 303.402344 203.445312 303.402344 191.15625 C 303.402344 178.863281 303.140625 175.3125 301.746094 168.890625 C 300.832031 164.6875 299.035156 158.273438 297.753906 154.640625 C 296.46875 151.003906 293.898438 144.992188 292.039062 141.28125 C 290.175781 137.566406 286.59375 131.519531 284.078125 127.835938 C 281.558594 124.152344 276.792969 118.277344 273.484375 114.78125 C 270.175781 111.28125 264.550781 106.164062 260.984375 103.40625 C 257.417969 100.644531 251.78125 96.796875 248.464844 94.851562 C 245.144531 92.90625 239.289062 90.035156 235.449219 88.46875 C 231.609375 86.90625 225.09375 84.753906 220.96875 83.683594 C 216.84375 82.613281 210.828125 81.382812 207.601562 80.945312 C 204.375 80.511719 197.625 80.15625 192.601562 80.160156 C 187.578125 80.164062 180.261719 80.652344 176.34375 81.246094 C 172.425781 81.839844 166.214844 83.203125 162.542969 84.273438 C 158.871094 85.339844 152.964844 87.414062 149.417969 88.882812 C 145.871094 90.347656 140.136719 93.210938 136.675781 95.25 C 133.210938 97.285156 127.644531 101.09375 124.300781 103.714844 C 120.957031 106.335938 115.832031 110.96875 112.917969 114.007812 C 110 117.042969 105.734375 122.0625 103.441406 125.15625 C 101.148438 128.25 97.726562 133.480469 95.839844 136.78125 C 93.953125 140.082031 91.402344 145.3125 90.175781 148.40625 C 88.949219 151.5 87.0625 157.066406 85.980469 160.78125 C 84.898438 164.492188 83.496094 170.90625 82.859375 175.03125 C 82.003906 180.570312 81.804688 185.765625 82.105469 194.90625 C 82.335938 202.09375 83.023438 209.632812 83.742188 212.890625 C 84.421875 215.976562 85.824219 221.207031 86.859375 224.515625 C 87.894531 227.824219 89.84375 233.0625 91.195312 236.15625 C 92.542969 239.25 95.230469 244.457031 97.164062 247.726562 C 99.097656 251 102.816406 256.410156 105.425781 259.75 C 108.03125 263.089844 113.015625 268.523438 116.5 271.816406 C 119.980469 275.113281 125.839844 279.871094 129.523438 282.386719 C 133.207031 284.90625 139.378906 288.546875 143.234375 290.484375 C 147.09375 292.417969 153.675781 295.140625 157.859375 296.53125 C 162.046875 297.925781 168.339844 299.578125 171.84375 300.207031 C 175.351562 300.832031 179.230469 301.5 180.46875 301.6875 C 181.707031 301.875 188.457031 301.910156 195.46875 301.769531 Z M 192.214844 273.554688 C 186.582031 273.496094 181.125 273.308594 180.09375 273.132812 C 179.0625 272.960938 175.085938 271.996094 171.257812 270.996094 C 167.425781 269.996094 161.730469 267.992188 158.59375 266.542969 C 155.460938 265.097656 150.128906 262.070312 146.75 259.820312 C 143.367188 257.574219 137.828125 252.957031 134.433594 249.566406 C 131.042969 246.171875 126.425781 240.632812 124.179688 237.25 C 121.929688 233.871094 118.902344 228.539062 117.457031 225.40625 C 116.007812 222.269531 113.898438 216.402344 112.769531 212.367188 C 110.875 205.582031 110.71875 203.984375 110.71875 191.15625 C 110.71875 178.324219 110.875 176.726562 112.769531 169.941406 C 113.898438 165.90625 116.007812 160.039062 117.457031 156.90625 C 118.902344 153.769531 121.929688 148.441406 124.179688 145.058594 C 126.425781 141.679688 131.042969 136.140625 134.433594 132.746094 C 137.828125 129.355469 143.367188 124.738281 146.75 122.488281 C 150.128906 120.242188 155.453125 117.21875 158.578125 115.773438 C 161.703125 114.332031 167.402344 112.273438 171.238281 111.199219 C 176.777344 109.652344 180.511719 109.167969 189.335938 108.859375 C 196.460938 108.609375 202.519531 108.800781 206.210938 109.394531 C 209.378906 109.90625 214.898438 111.28125 218.480469 112.449219 C 222.058594 113.621094 226.785156 115.476562 228.980469 116.574219 C 231.175781 117.671875 235.699219 120.375 239.035156 122.578125 C 242.367188 124.785156 247.832031 129.304688 251.175781 132.621094 C 254.515625 135.941406 259.128906 141.480469 261.425781 144.933594 C 263.722656 148.382812 266.785156 153.769531 268.234375 156.90625 C 269.679688 160.039062 271.789062 165.90625 272.917969 169.941406 C 274.816406 176.726562 274.96875 178.324219 274.96875 191.15625 C 274.96875 203.984375 274.816406 205.582031 272.917969 212.367188 C 271.789062 216.402344 269.679688 222.269531 268.234375 225.40625 C 266.785156 228.539062 263.757812 233.871094 261.511719 237.25 C 259.261719 240.632812 254.644531 246.171875 251.253906 249.566406 C 247.859375 252.957031 242.359375 257.535156 239.027344 259.734375 C 235.695312 261.9375 231.21875 264.617188 229.074219 265.6875 C 226.933594 266.761719 222.574219 268.511719 219.390625 269.582031 C 216.207031 270.648438 211.09375 272.003906 208.03125 272.589844 C 204.671875 273.234375 198.394531 273.613281 192.214844 273.554688 Z M 192.214844 273.554688 "/>
<path style=" stroke:none;fill-rule:nonzero;fill:rgb(88.235294%,36.470588%,36.470588%);fill-opacity:1;" d="M 196.21875 382.746094 C 188.382812 382.890625 180.621094 382.871094 178.96875 382.707031 C 177.320312 382.542969 172.089844 381.878906 167.34375 381.238281 C 162.601562 380.59375 154.875 379.21875 150.175781 378.175781 C 145.472656 377.132812 137.542969 374.917969 132.550781 373.253906 C 127.554688 371.589844 119.84375 368.609375 115.414062 366.628906 C 110.980469 364.652344 104.398438 361.421875 100.789062 359.457031 C 97.175781 357.488281 90.625 353.453125 86.234375 350.484375 C 81.839844 347.519531 75.765625 343.140625 72.734375 340.757812 C 69.699219 338.371094 62.652344 331.832031 57.066406 326.226562 C 51.484375 320.617188 44.695312 313.160156 41.984375 309.65625 C 39.273438 306.148438 34.84375 299.902344 32.136719 295.773438 C 29.433594 291.644531 25.183594 284.386719 22.699219 279.648438 C 20.210938 274.910156 16.621094 267.15625 14.71875 262.417969 C 12.820312 257.683594 10.121094 249.871094 8.71875 245.054688 C 7.320312 240.242188 5.515625 232.808594 4.710938 228.542969 C 3.902344 224.273438 2.789062 217.742188 2.238281 214.03125 C 1.621094 209.902344 1.242188 200.875 1.261719 190.78125 C 1.285156 178.859375 1.660156 171.886719 2.621094 165.65625 C 3.351562 160.910156 4.605469 153.992188 5.402344 150.28125 C 6.199219 146.566406 7.734375 140.492188 8.8125 136.78125 C 9.890625 133.066406 12.289062 126.148438 14.140625 121.40625 C 15.996094 116.660156 19.523438 108.820312 21.980469 103.980469 C 24.4375 99.140625 29.425781 90.703125 33.066406 85.230469 C 36.703125 79.757812 42.375 72.074219 45.664062 68.15625 C 48.953125 64.238281 55.316406 57.484375 59.808594 53.152344 C 64.296875 48.820312 70.839844 43.042969 74.34375 40.3125 C 77.851562 37.582031 84.097656 33.136719 88.226562 30.4375 C 92.355469 27.738281 99.613281 23.496094 104.351562 21.007812 C 109.089844 18.523438 116.84375 14.933594 121.582031 13.03125 C 126.316406 11.128906 134.128906 8.429688 138.945312 7.03125 C 143.757812 5.632812 151.191406 3.828125 155.457031 3.019531 C 159.726562 2.214844 166.257812 1.101562 169.96875 0.554688 C 173.976562 -0.0390625 183.277344 -0.445312 192.84375 -0.445312 C 202.414062 -0.445312 211.714844 -0.0390625 215.71875 0.554688 C 219.433594 1.101562 225.960938 2.214844 230.230469 3.019531 C 234.5 3.828125 241.929688 5.632812 246.742188 7.03125 C 251.558594 8.429688 259.371094 11.128906 264.109375 13.03125 C 268.84375 14.933594 276.597656 18.523438 281.335938 21.007812 C 286.078125 23.496094 293.332031 27.738281 297.460938 30.4375 C 301.589844 33.136719 307.839844 37.582031 311.34375 40.3125 C 314.851562 43.042969 321.394531 48.820312 325.882812 53.152344 C 330.371094 57.484375 336.734375 64.238281 340.027344 68.15625 C 343.316406 72.074219 348.949219 79.707031 352.546875 85.121094 C 356.148438 90.53125 360.636719 97.957031 362.527344 101.621094 C 364.417969 105.28125 367.300781 111.316406 368.933594 115.03125 C 370.5625 118.742188 373.265625 125.867188 374.933594 130.859375 C 376.605469 135.855469 378.820312 143.785156 379.859375 148.484375 C 380.902344 153.183594 382.347656 160.910156 383.078125 165.65625 C 384.058594 172.03125 384.402344 178.683594 384.386719 191.15625 C 384.375 202.96875 383.984375 210.730469 383.089844 217.023438 C 382.382812 221.96875 380.949219 229.839844 379.902344 234.511719 C 378.855469 239.183594 376.515625 247.324219 374.710938 252.601562 C 372.902344 257.878906 369.898438 265.636719 368.035156 269.84375 C 366.167969 274.046875 362.898438 280.589844 360.765625 284.382812 C 358.636719 288.175781 354.589844 294.65625 351.78125 298.78125 C 348.972656 302.90625 344.378906 309.140625 341.570312 312.640625 C 338.765625 316.136719 332.839844 322.609375 328.40625 327.023438 C 323.972656 331.4375 317.558594 337.292969 314.15625 340.035156 C 310.753906 342.777344 304.066406 347.640625 299.296875 350.847656 C 294.523438 354.054688 287.101562 358.558594 282.796875 360.855469 C 278.492188 363.15625 271.933594 366.292969 268.21875 367.828125 C 264.507812 369.363281 258.09375 371.777344 253.96875 373.191406 C 249.84375 374.605469 242.417969 376.730469 237.46875 377.910156 C 232.519531 379.089844 224.417969 380.601562 219.46875 381.269531 C 214.519531 381.9375 204.058594 382.601562 196.21875 382.746094 Z M 192.207031 302.828125 C 199.976562 302.882812 205.6875 302.480469 211.707031 301.449219 C 216.390625 300.644531 223.386719 298.953125 227.253906 297.6875 C 231.125 296.421875 237.132812 294.054688 240.609375 292.425781 C 244.082031 290.796875 250.195312 287.300781 254.195312 284.660156 C 258.195312 282.015625 263.832031 277.789062 266.71875 275.269531 C 269.605469 272.75 274.125 268.234375 276.757812 265.234375 C 279.390625 262.234375 283.707031 256.507812 286.351562 252.507812 C 288.992188 248.507812 292.488281 242.394531 294.113281 238.917969 C 295.742188 235.445312 298.109375 229.4375 299.375 225.566406 C 300.644531 221.695312 302.335938 214.699219 303.136719 210.019531 C 304.097656 204.398438 304.59375 197.988281 304.59375 191.15625 C 304.59375 184.324219 304.097656 177.910156 303.136719 172.292969 C 302.335938 167.609375 300.644531 160.613281 299.375 156.746094 C 298.109375 152.875 295.742188 146.867188 294.113281 143.390625 C 292.488281 139.917969 289.003906 133.792969 286.375 129.777344 C 283.742188 125.765625 279.484375 120.03125 276.90625 117.039062 C 274.332031 114.046875 269.636719 109.371094 266.472656 106.648438 C 263.308594 103.925781 258.019531 99.929688 254.71875 97.765625 C 251.417969 95.605469 245.859375 92.402344 242.367188 90.652344 C 238.871094 88.902344 232.121094 86.195312 227.367188 84.636719 C 222.609375 83.078125 215.019531 81.222656 210.492188 80.515625 C 204.054688 79.507812 199.410156 79.3125 189.117188 79.628906 C 181.140625 79.871094 173.757812 80.515625 170.34375 81.269531 C 167.25 81.949219 161.179688 83.683594 156.851562 85.121094 C 152.527344 86.558594 145.507812 89.550781 141.25 91.773438 C 136.996094 93.996094 130.753906 97.773438 127.378906 100.171875 C 124.003906 102.570312 117.863281 107.910156 113.730469 112.042969 C 109.601562 116.175781 104.257812 122.316406 101.859375 125.691406 C 99.464844 129.066406 95.683594 135.308594 93.460938 139.5625 C 91.242188 143.816406 88.246094 150.839844 86.804688 155.164062 C 85.367188 159.492188 83.578125 165.898438 82.828125 169.40625 C 81.769531 174.382812 81.46875 179.15625 81.46875 191.15625 C 81.46875 203.15625 81.769531 207.929688 82.828125 212.90625 C 83.578125 216.410156 85.347656 222.769531 86.769531 227.035156 C 88.1875 231.300781 91.074219 238.152344 93.1875 242.265625 C 95.296875 246.375 98.949219 252.425781 101.296875 255.714844 C 103.644531 259 107.664062 264.027344 110.222656 266.886719 C 112.78125 269.746094 117.316406 274.078125 120.296875 276.515625 C 123.28125 278.953125 128.589844 282.808594 132.09375 285.082031 C 135.601562 287.359375 140.222656 290.101562 142.363281 291.179688 C 144.503906 292.253906 148.816406 294.152344 151.945312 295.394531 C 155.074219 296.636719 160.40625 298.375 163.800781 299.253906 C 167.195312 300.132812 172.5 301.28125 175.59375 301.804688 C 178.6875 302.324219 186.164062 302.785156 192.207031 302.828125 Z M 192.183594 272.804688 C 187.390625 272.746094 182.625 272.566406 181.59375 272.398438 C 180.5625 272.230469 177.433594 271.597656 174.640625 270.988281 C 171.847656 270.378906 167.457031 269.089844 164.890625 268.121094 C 162.320312 267.15625 157.855469 265.171875 154.96875 263.714844 C 152.082031 262.261719 147.527344 259.453125 144.84375 257.476562 C 142.164062 255.5 138.160156 252.171875 135.949219 250.082031 C 133.734375 247.992188 129.917969 243.617188 127.464844 240.363281 C 125.011719 237.109375 121.628906 231.707031 119.945312 228.363281 C 118.261719 225.015625 116.074219 219.917969 115.089844 217.03125 C 114.101562 214.144531 112.800781 208.953125 112.195312 205.496094 C 111.589844 202.039062 111.09375 195.585938 111.09375 191.15625 C 111.09375 186.726562 111.589844 180.273438 112.195312 176.816406 C 112.800781 173.359375 114.101562 168.167969 115.089844 165.28125 C 116.074219 162.394531 118.242188 157.332031 119.90625 154.03125 C 121.570312 150.730469 124.546875 145.835938 126.523438 143.15625 C 128.5 140.472656 131.828125 136.472656 133.917969 134.257812 C 136.007812 132.046875 140.382812 128.230469 143.636719 125.777344 C 146.890625 123.324219 152.28125 119.945312 155.617188 118.269531 C 158.949219 116.59375 163.035156 114.734375 164.699219 114.136719 C 166.359375 113.539062 170.25 112.382812 173.34375 111.5625 C 176.832031 110.640625 182.707031 109.90625 188.796875 109.636719 C 194.972656 109.363281 200.960938 109.542969 204.90625 110.121094 C 208.359375 110.625 213.890625 111.890625 217.203125 112.9375 C 220.511719 113.980469 226.089844 116.277344 229.59375 118.039062 C 233.101562 119.800781 238.164062 122.859375 240.84375 124.832031 C 243.527344 126.808594 247.53125 130.136719 249.742188 132.230469 C 251.953125 134.320312 255.769531 138.695312 258.222656 141.949219 C 260.675781 145.203125 264.0625 150.601562 265.746094 153.949219 C 267.429688 157.292969 269.613281 162.394531 270.597656 165.28125 C 271.585938 168.167969 272.886719 173.359375 273.492188 176.816406 C 274.097656 180.273438 274.59375 186.726562 274.59375 191.15625 C 274.59375 195.585938 274.097656 202.039062 273.492188 205.496094 C 272.886719 208.953125 271.585938 214.144531 270.597656 217.03125 C 269.613281 219.917969 267.429688 225.015625 265.746094 228.363281 C 264.0625 231.707031 260.675781 237.109375 258.222656 240.363281 C 255.769531 243.617188 251.953125 247.992188 249.742188 250.082031 C 247.53125 252.171875 243.527344 255.5 240.84375 257.476562 C 238.164062 259.453125 233.269531 262.429688 229.96875 264.09375 C 226.667969 265.757812 221.605469 267.925781 218.71875 268.910156 C 215.832031 269.898438 210.640625 271.199219 207.183594 271.804688 C 203.714844 272.414062 196.992188 272.859375 192.183594 272.804688 Z M 192.183594 272.804688 "/>
<path style=" stroke:none;fill-rule:nonzero;fill:rgb(87.843137%,10.196078%,10.196078%);fill-opacity:1;" d="M 198.84375 382.585938 C 192.449219 382.777344 184.433594 382.800781 181.03125 382.636719 C 177.628906 382.476562 174.84375 382.019531 174.84375 381.625 C 174.84375 381.230469 173.695312 380.90625 172.292969 380.90625 C 170.890625 380.90625 165.746094 380.222656 160.855469 379.390625 C 155.96875 378.558594 148.121094 376.851562 143.417969 375.601562 C 138.714844 374.351562 131.121094 371.960938 126.542969 370.292969 C 121.964844 368.625 113.496094 364.910156 107.71875 362.042969 C 101.945312 359.171875 93 354.003906 87.84375 350.550781 C 82.6875 347.101562 75.609375 341.972656 72.109375 339.152344 C 68.613281 336.335938 62.140625 330.402344 57.726562 325.96875 C 53.3125 321.535156 47.464844 315.121094 44.730469 311.71875 C 42 308.316406 37.476562 302.15625 34.683594 298.03125 C 31.886719 293.90625 27.886719 287.492188 25.789062 283.78125 C 23.695312 280.066406 20.386719 273.488281 18.445312 269.15625 C 16.5 264.824219 13.464844 256.894531 11.699219 251.53125 C 9.933594 246.167969 7.628906 237.898438 6.578125 233.15625 C 5.527344 228.410156 4.285156 221.492188 3.816406 217.78125 C 3.347656 214.066406 2.59375 210.265625 2.140625 209.328125 C 1.625 208.253906 1.324219 201.523438 1.324219 191.15625 C 1.324219 180.789062 1.625 174.058594 2.140625 172.984375 C 2.59375 172.046875 3.347656 168.242188 3.816406 164.53125 C 4.285156 160.816406 5.527344 153.898438 6.574219 149.15625 C 7.625 144.410156 9.671875 136.816406 11.132812 132.28125 C 12.589844 127.742188 15.445312 120.148438 17.476562 115.40625 C 19.507812 110.660156 23.054688 103.40625 25.351562 99.28125 C 27.652344 95.15625 31.835938 88.40625 34.648438 84.28125 C 37.464844 80.15625 42.0625 73.910156 44.867188 70.40625 C 47.671875 66.898438 53.511719 60.488281 57.84375 56.15625 C 62.175781 51.824219 68.589844 45.976562 72.09375 43.15625 C 75.601562 40.339844 82.6875 35.210938 87.84375 31.757812 C 93 28.308594 101.945312 23.132812 107.71875 20.261719 C 113.496094 17.386719 122.546875 13.476562 127.839844 11.570312 C 133.128906 9.664062 141.554688 7.105469 146.558594 5.882812 C 151.5625 4.660156 159.554688 3.117188 164.316406 2.453125 C 169.074219 1.789062 173.75 0.875 174.703125 0.421875 C 175.792969 -0.09375 182.519531 -0.398438 192.84375 -0.398438 C 203.359375 -0.398438 209.875 -0.0976562 210.984375 0.4375 C 211.9375 0.898438 215.757812 1.65625 219.46875 2.125 C 223.183594 2.597656 230.101562 3.839844 234.84375 4.886719 C 239.589844 5.933594 247.183594 7.984375 251.71875 9.441406 C 256.257812 10.902344 263.851562 13.753906 268.59375 15.789062 C 273.339844 17.820312 280.558594 21.347656 284.640625 23.625 C 288.722656 25.90625 295.539062 30.101562 299.785156 32.949219 C 304.035156 35.800781 310.648438 40.738281 314.488281 43.925781 C 318.328125 47.113281 324.734375 53.023438 328.726562 57.058594 C 332.71875 61.09375 338.230469 67.183594 340.980469 70.589844 C 343.726562 73.996094 348.933594 81.214844 352.546875 86.636719 C 356.160156 92.058594 361.324219 101.003906 364.023438 106.511719 C 366.722656 112.023438 370.300781 120.277344 371.972656 124.855469 C 373.644531 129.433594 376.039062 137.027344 377.289062 141.730469 C 378.542969 146.433594 380.246094 154.28125 381.082031 159.167969 C 381.914062 164.054688 382.59375 169.175781 382.59375 170.542969 C 382.59375 171.910156 382.992188 173.164062 383.472656 173.324219 C 384.113281 173.539062 384.355469 178.382812 384.355469 191.074219 C 384.355469 202.492188 384.082031 208.703125 383.5625 209.03125 C 383.128906 209.304688 382.535156 212.398438 382.238281 215.90625 C 381.945312 219.410156 380.867188 226.332031 379.839844 231.28125 C 378.816406 236.230469 376.609375 244.5 374.941406 249.65625 C 373.269531 254.8125 370.242188 262.910156 368.210938 267.65625 C 366.179688 272.398438 362.300781 280.160156 359.59375 284.90625 C 356.886719 289.648438 352.464844 296.699219 349.769531 300.574219 C 347.074219 304.449219 342.417969 310.527344 339.417969 314.074219 C 336.417969 317.625 330.644531 323.773438 326.589844 327.742188 C 322.535156 331.707031 317.023438 336.777344 314.34375 339.011719 C 311.660156 341.246094 306.261719 345.296875 302.34375 348.015625 C 298.425781 350.734375 291.625 355.042969 287.230469 357.59375 C 282.839844 360.144531 275.074219 364.027344 269.980469 366.226562 C 264.886719 368.421875 257.007812 371.441406 252.46875 372.929688 C 247.933594 374.421875 240.527344 376.503906 236.011719 377.558594 C 231.496094 378.613281 224.070312 379.851562 219.511719 380.308594 C 214.949219 380.765625 211.050781 381.386719 210.84375 381.6875 C 210.636719 381.992188 205.238281 382.394531 198.84375 382.585938 Z M 192.207031 303.578125 C 199.976562 303.632812 205.6875 303.230469 211.707031 302.199219 C 216.390625 301.394531 223.425781 299.699219 227.34375 298.425781 C 231.261719 297.152344 238.183594 294.300781 242.71875 292.082031 C 247.257812 289.867188 254.007812 285.910156 257.71875 283.292969 C 261.433594 280.671875 268.011719 274.984375 272.34375 270.648438 C 276.675781 266.3125 282.199219 259.972656 284.621094 256.566406 C 287.039062 253.15625 290.941406 246.582031 293.289062 241.949219 C 295.636719 237.320312 298.652344 230.15625 299.988281 226.03125 C 301.328125 221.90625 303.078125 214.699219 303.882812 210.019531 C 304.851562 204.386719 305.34375 198.003906 305.34375 191.15625 C 305.34375 184.324219 304.847656 177.910156 303.886719 172.292969 C 303.085938 167.609375 301.382812 160.582031 300.101562 156.667969 C 298.820312 152.757812 296.261719 146.359375 294.410156 142.453125 C 292.558594 138.542969 288.808594 131.957031 286.078125 127.8125 C 282.699219 122.683594 278.222656 117.398438 272.042969 111.238281 C 266.347656 105.566406 260.355469 100.460938 255.945312 97.527344 C 252.078125 94.957031 245.835938 91.359375 242.070312 89.539062 C 238.300781 87.714844 232.183594 85.21875 228.46875 83.992188 C 224.757812 82.765625 219.171875 81.242188 216.058594 80.609375 C 212.945312 79.972656 206.445312 79.085938 201.621094 78.636719 C 195.292969 78.050781 190.398438 78.050781 184.070312 78.636719 C 179.242188 79.085938 172.746094 79.972656 169.632812 80.609375 C 166.515625 81.242188 160.960938 82.761719 157.285156 83.984375 C 153.609375 85.207031 147.496094 87.699219 143.703125 89.519531 C 139.910156 91.339844 133.636719 94.933594 129.761719 97.503906 C 125.195312 100.535156 119.40625 105.496094 113.292969 111.605469 C 107.191406 117.707031 102.226562 123.507812 99.207031 128.054688 C 96.640625 131.921875 93.050781 138.164062 91.226562 141.929688 C 89.402344 145.699219 86.90625 151.816406 85.679688 155.53125 C 84.453125 159.242188 82.933594 164.828125 82.296875 167.941406 C 81.664062 171.058594 80.777344 177.554688 80.328125 182.378906 C 79.738281 188.707031 79.738281 193.601562 80.328125 199.929688 C 80.777344 204.757812 81.664062 211.253906 82.296875 214.367188 C 82.933594 217.484375 84.453125 223.066406 85.679688 226.78125 C 86.90625 230.492188 89.402344 236.613281 91.226562 240.378906 C 93.050781 244.144531 96.640625 250.363281 99.203125 254.195312 C 101.765625 258.027344 107.164062 264.589844 111.199219 268.78125 C 115.234375 272.96875 121.167969 278.339844 124.378906 280.714844 C 127.59375 283.089844 133.429688 286.867188 137.347656 289.109375 C 141.265625 291.351562 147.84375 294.496094 151.96875 296.089844 C 156.09375 297.6875 161.832031 299.578125 164.71875 300.289062 C 167.605469 301.003906 172.5 302.019531 175.59375 302.542969 C 178.6875 303.070312 186.164062 303.535156 192.207031 303.578125 Z M 192.183594 272.042969 C 187.390625 271.980469 182.457031 271.789062 181.21875 271.621094 C 179.980469 271.449219 176.347656 270.664062 173.140625 269.878906 C 169.933594 269.09375 164.980469 267.46875 162.136719 266.273438 C 159.292969 265.078125 154.828125 262.898438 152.214844 261.425781 C 149.605469 259.957031 144.6875 256.511719 141.285156 253.777344 C 137.882812 251.039062 132.820312 245.945312 130.035156 242.453125 C 127.25 238.960938 123.539062 233.5 121.792969 230.316406 C 120.046875 227.136719 117.597656 221.722656 116.351562 218.289062 C 115.101562 214.855469 113.578125 209.15625 112.964844 205.628906 C 112.347656 202.097656 111.84375 195.585938 111.84375 191.15625 C 111.84375 186.726562 112.347656 180.21875 112.960938 176.695312 C 113.578125 173.171875 114.96875 167.8125 116.054688 164.785156 C 117.140625 161.757812 119.039062 157.253906 120.273438 154.78125 C 121.507812 152.304688 123.882812 148.253906 125.554688 145.78125 C 127.222656 143.304688 130.273438 139.34375 132.328125 136.972656 C 134.382812 134.601562 138.738281 130.550781 142.011719 127.972656 C 145.285156 125.390625 149.878906 122.1875 152.214844 120.847656 C 154.554688 119.511719 158.921875 117.390625 161.917969 116.136719 C 164.917969 114.878906 169.980469 113.171875 173.167969 112.335938 C 176.777344 111.394531 182.6875 110.660156 188.796875 110.386719 C 194.902344 110.117188 201.011719 110.292969 204.921875 110.855469 C 208.386719 111.355469 214.164062 112.742188 217.761719 113.9375 C 221.359375 115.132812 226.421875 117.175781 229.011719 118.476562 C 231.601562 119.777344 236.0625 122.402344 238.929688 124.3125 C 241.792969 126.21875 246.855469 130.5 250.179688 133.820312 C 253.5 137.144531 257.78125 142.207031 259.6875 145.070312 C 261.597656 147.9375 264.222656 152.398438 265.523438 154.988281 C 266.824219 157.578125 268.867188 162.640625 270.0625 166.238281 C 271.257812 169.835938 272.644531 175.613281 273.144531 179.078125 C 273.707031 182.988281 273.882812 189.097656 273.613281 195.203125 C 273.339844 201.339844 272.605469 207.222656 271.652344 210.871094 C 270.8125 214.085938 269.152344 219.035156 267.957031 221.875 C 266.765625 224.714844 264.585938 229.171875 263.113281 231.785156 C 261.644531 234.394531 258.203125 239.3125 255.464844 242.714844 C 252.730469 246.121094 247.632812 251.183594 244.144531 253.964844 C 240.652344 256.75 235.191406 260.460938 232.007812 262.207031 C 228.824219 263.953125 223.410156 266.402344 219.976562 267.648438 C 216.542969 268.898438 210.847656 270.421875 207.316406 271.035156 C 203.703125 271.667969 197.089844 272.105469 192.183594 272.042969 Z M 192.183594 272.042969 "/>
<path style=" stroke:none;fill-rule:nonzero;fill:rgb(76.470588%,1.960784%,1.960784%);fill-opacity:1;" d="M 225.941406 379.042969 L 222.660156 379.570312 L 176.253906 333.183594 C 150.726562 307.671875 129.84375 286.511719 129.84375 286.164062 C 129.84375 285.816406 131.617188 286.597656 133.78125 287.898438 C 135.949219 289.199219 140.757812 291.710938 144.46875 293.480469 C 148.183594 295.25 153.992188 297.613281 157.382812 298.730469 C 160.773438 299.847656 166.679688 301.433594 170.507812 302.25 C 174.691406 303.144531 181.960938 303.90625 188.71875 304.164062 C 197.179688 304.488281 202.066406 304.285156 208.417969 303.347656 C 213.066406 302.660156 219.816406 301.25 223.417969 300.207031 C 227.019531 299.167969 232.839844 297.152344 236.34375 295.726562 C 239.851562 294.300781 245.417969 291.582031 248.71875 289.683594 C 252.019531 287.785156 257.25 284.355469 260.34375 282.0625 C 263.4375 279.769531 268.617188 275.335938 271.847656 272.210938 C 275.082031 269.085938 280.027344 263.492188 282.832031 259.78125 C 285.636719 256.066406 289.484375 250.332031 291.378906 247.03125 C 293.273438 243.730469 295.992188 238.160156 297.417969 234.65625 C 298.839844 231.148438 300.859375 225.332031 301.898438 221.730469 C 302.9375 218.125 304.351562 211.375 305.035156 206.730469 C 305.972656 200.375 306.175781 195.492188 305.855469 187.03125 C 305.597656 180.269531 304.832031 173.003906 303.9375 168.820312 C 303.121094 164.992188 301.535156 159.085938 300.417969 155.695312 C 299.300781 152.304688 296.945312 146.492188 295.179688 142.78125 C 293.417969 139.066406 290.886719 134.175781 289.558594 131.90625 L 287.148438 127.78125 L 289.199219 129.65625 C 290.332031 130.6875 311.382812 151.714844 335.988281 176.382812 C 360.589844 201.050781 380.839844 221.363281 380.984375 221.523438 C 381.128906 221.679688 380.375 225.984375 379.304688 231.082031 C 378.234375 236.183594 376.148438 244.1875 374.664062 248.867188 C 373.183594 253.546875 370.453125 260.957031 368.59375 265.328125 C 366.738281 269.703125 363.328125 276.824219 361.015625 281.15625 C 358.707031 285.488281 354.328125 292.714844 351.289062 297.21875 C 348.246094 301.722656 342.957031 308.808594 339.53125 312.96875 C 336.105469 317.128906 329.773438 323.929688 325.457031 328.082031 C 321.140625 332.234375 315.152344 337.589844 312.148438 339.988281 C 309.148438 342.382812 303.097656 346.769531 298.703125 349.734375 C 294.3125 352.703125 287.136719 357.050781 282.757812 359.394531 C 278.378906 361.742188 271.234375 365.15625 266.882812 366.980469 C 262.527344 368.804688 255.648438 371.359375 251.59375 372.660156 C 247.539062 373.960938 240.84375 375.808594 236.71875 376.769531 C 232.59375 377.730469 227.742188 378.75 225.941406 379.042969 Z M 194.71875 271.089844 C 185.460938 271.292969 180.632812 271.070312 177.09375 270.285156 C 174.414062 269.6875 170.027344 268.476562 167.34375 267.589844 C 164.664062 266.707031 159.53125 264.476562 155.941406 262.636719 C 152.355469 260.796875 147.292969 257.675781 144.691406 255.699219 C 142.09375 253.722656 138.152344 250.289062 135.929688 248.070312 C 133.710938 245.847656 130.21875 241.835938 128.171875 239.15625 C 126.128906 236.472656 122.644531 230.566406 120.433594 226.03125 C 118.222656 221.492188 115.644531 214.910156 114.703125 211.40625 C 113.210938 205.851562 112.988281 203.242188 112.988281 191.15625 C 112.988281 179.070312 113.210938 176.457031 114.703125 170.90625 C 115.644531 167.398438 118.222656 160.816406 120.433594 156.28125 C 122.644531 151.742188 126.128906 145.835938 128.171875 143.15625 C 130.21875 140.472656 133.710938 136.464844 135.929688 134.242188 C 138.152344 132.019531 142.164062 128.53125 144.84375 126.484375 C 147.527344 124.4375 153.433594 120.957031 157.96875 118.746094 C 162.507812 116.535156 169.089844 113.953125 172.59375 113.011719 C 178.148438 111.523438 180.757812 111.300781 192.84375 111.300781 C 204.929688 111.300781 207.542969 111.523438 213.09375 113.011719 C 216.601562 113.953125 223.183594 116.535156 227.71875 118.746094 C 232.257812 120.957031 238.226562 124.480469 240.988281 126.578125 C 243.75 128.675781 247.71875 132.101562 249.808594 134.191406 C 251.898438 136.28125 255.324219 140.25 257.421875 143.011719 C 259.519531 145.773438 263.042969 151.742188 265.253906 156.28125 C 267.464844 160.816406 270.046875 167.398438 270.988281 170.90625 C 272.476562 176.457031 272.699219 179.070312 272.699219 191.15625 C 272.699219 203.242188 272.476562 205.851562 270.988281 211.40625 C 270.046875 214.910156 267.464844 221.492188 265.253906 226.03125 C 263.042969 230.566406 259.5625 236.472656 257.515625 239.15625 C 255.46875 241.835938 251.980469 245.847656 249.757812 248.070312 C 247.535156 250.289062 243.527344 253.78125 240.84375 255.828125 C 238.164062 257.871094 232.257812 261.355469 227.71875 263.566406 C 223.183594 265.777344 216.769531 268.308594 213.46875 269.199219 C 208.746094 270.46875 204.757812 270.871094 194.71875 271.089844 Z M 194.71875 271.089844 "/>
</g>
</svg>
