<svg id="Outline" viewBox="0 0 64 64" xmlns="http://www.w3.org/2000/svg"><path d="m52.26 35.98c-.14-2.41-.81-4.78-1.95-6.89-.26-.49-.87-.66-1.36-.4s-.67.87-.4 1.36c.99 1.82 1.57 3.86 1.71 5.94-1.24.15-2.44.56-3.51 1.21-.47.29-.62.9-.33 1.37.19.31.52.48.85.48.18 0 .36-.05.52-.15 1.05-.64 2.26-.98 3.49-.98 3.7 0 6.71 3.01 6.71 6.71s-3.01 6.71-6.71 6.71h-34.71c-1.07 0-2.15-.17-3.21-.49-4.41-1.4-7.36-5.45-7.36-10.08 0-5.83 4.74-10.57 10.57-10.57 1.68 0 3.3.39 4.81 1.16 2.4 1.22 4.27 3.36 5.14 5.88.04.12.11.22.18.31.02.03.05.05.08.07.06.06.13.11.2.15.03.02.07.04.1.05.08.03.16.05.25.07.03 0 .06.01.09.01h.04c.11 0 .22-.02.33-.06.52-.18.8-.75.62-1.27-.12-.36-.27-.71-.42-1.05-.05-.11-.11-.22-.17-.34-.11-.23-.22-.45-.35-.67-.07-.13-.16-.26-.24-.38-.12-.19-.24-.38-.37-.57-.09-.13-.19-.26-.29-.39-.13-.17-.27-.34-.41-.51-.11-.13-.21-.25-.33-.37-.14-.16-.29-.31-.45-.46-.12-.12-.24-.23-.36-.34-.16-.15-.32-.28-.49-.42-.13-.1-.25-.21-.38-.31-.18-.14-.36-.26-.55-.39-.13-.09-.25-.18-.38-.26-.03-.02-.06-.04-.09-.06 2.5-4.63 7.38-7.58 12.7-7.58 1.32 0 2.67.19 4.12.6.53.15 1.08-.17 1.23-.7s-.17-1.08-.7-1.23c-1.63-.45-3.15-.67-4.65-.67-6.07 0-11.65 3.38-14.49 8.69-1.53-.64-3.13-.98-4.8-.98-6.93 0-12.57 5.64-12.57 12.57 0 5.5 3.52 10.32 8.77 11.99 1.25.39 2.53.58 3.81.58h34.71c4.81 0 8.71-3.91 8.71-8.71 0-4.48-3.39-8.17-7.74-8.66z"/><path d="m54.09 14.69c.39-.39.39-1.02 0-1.41-1.69-1.69-3.94-2.62-6.33-2.62s-4.64.93-6.33 2.63c-.39.39-.39 1.02 0 1.41.2.2.45.29.71.29s.51-.1.71-.29c1.32-1.32 3.06-2.04 4.92-2.04s3.6.72 4.92 2.04c.39.39 1.02.39 1.41 0z"/><path d="m51.64 19.39c.39-.39.39-1.02 0-1.41-1.04-1.04-2.42-1.61-3.88-1.61s-2.84.57-3.88 1.61c-.39.39-.39 1.02 0 1.41.2.2.45.29.71.29s.51-.1.71-.29c1.32-1.32 3.61-1.32 4.94 0 .39.39 1.02.39 1.41 0z"/><path d="m45.92 23.19c0 1.02.82 1.84 1.84 1.84s1.84-.82 1.84-1.84-.82-1.84-1.84-1.84-1.84.82-1.84 1.84z"/></svg>