<?xml version="1.0" encoding="UTF-8"?>
<svg xmlns="http://www.w3.org/2000/svg" xmlns:xlink="http://www.w3.org/1999/xlink" version="1.1" id="Capa_1" x="0px" y="0px" viewBox="0 0 512 512" style="enable-background:new 0 0 512 512;" xml:space="preserve" width="512" height="512">
<g>
	<g>
		<path style="fill:none;stroke:#000000;stroke-width:30;stroke-linecap:round;stroke-linejoin:round;stroke-miterlimit:10;" d="&#10;&#9;&#9;&#9;M79.442,480.587l-48.028-48.028c-21.885-21.885-21.885-57.367,0-79.251l212.784-212.784c21.885-21.885,57.367-21.885,79.251,0&#10;&#9;&#9;&#9;l48.028,48.028c21.885,21.885,21.885,57.367,0,79.251L158.693,480.587C136.808,502.471,101.326,502.471,79.442,480.587z"/>
		
			<circle style="fill:none;stroke:#000000;stroke-width:30;stroke-linecap:round;stroke-linejoin:round;stroke-miterlimit:10;" cx="283.823" cy="228.177" r="30"/>
		
			<line style="fill:none;stroke:#000000;stroke-width:30;stroke-linecap:round;stroke-linejoin:round;stroke-miterlimit:10;" x1="203.92" y1="265.654" x2="203.92" y2="265.654"/>
		
			<line style="fill:none;stroke:#000000;stroke-width:30;stroke-linecap:round;stroke-linejoin:round;stroke-miterlimit:10;" x1="246.346" y1="308.08" x2="246.346" y2="308.08"/>
		
			<line style="fill:none;stroke:#000000;stroke-width:30;stroke-linecap:round;stroke-linejoin:round;stroke-miterlimit:10;" x1="161.494" y1="308.08" x2="161.494" y2="308.08"/>
		
			<line style="fill:none;stroke:#000000;stroke-width:30;stroke-linecap:round;stroke-linejoin:round;stroke-miterlimit:10;" x1="203.92" y1="350.506" x2="203.92" y2="350.506"/>
		
			<line style="fill:none;stroke:#000000;stroke-width:30;stroke-linecap:round;stroke-linejoin:round;stroke-miterlimit:10;" x1="119.067" y1="350.506" x2="161.494" y2="392.933"/>
		
			<line style="fill:none;stroke:#000000;stroke-width:30;stroke-linecap:round;stroke-linejoin:round;stroke-miterlimit:10;" x1="76.641" y1="392.933" x2="119.067" y2="435.359"/>
	</g>
	<g>
		<path style="fill:none;stroke:#000000;stroke-width:30;stroke-linecap:round;stroke-linejoin:round;stroke-miterlimit:10;" d="&#10;&#9;&#9;&#9;M372.255,77.365c15.959,0.007,31.925,6.094,44.106,18.274s18.267,28.147,18.274,44.106"/>
		<path style="fill:none;stroke:#000000;stroke-width:30;stroke-linecap:round;stroke-linejoin:round;stroke-miterlimit:10;" d="&#10;&#9;&#9;&#9;M372.255,15c31.925-0.007,63.85,12.173,88.211,36.534c24.361,24.361,36.541,56.286,36.534,88.211"/>
	</g>
</g>















</svg>
