<svg xmlns="http://www.w3.org/2000/svg" version="1.1" xmlns:xlink="http://www.w3.org/1999/xlink" width="512" height="512" x="0" y="0" viewBox="0 0 64 64" style="enable-background:new 0 0 512 512" xml:space="preserve" class=""><g><path d="M51 53h7c1.654 0 3-1.346 3-3v-7H51zm5-7a2 2 0 1 1 .001 3.999A2 2 0 0 1 56 46zM13 27v18h18.001L31 27zm15 15H16V30h12zM42 17h12c.551 0 1-.448 1-1v-4c0-.552-.449-1-1-1H42c-.551 0-1 .448-1 1v4c0 .552.449 1 1 1zm9-4h2v2h-2zm-4 0h2v2h-2zm-4 0h2v2h-2z" fill="#ffffff" opacity="1" data-original="#000000" class=""></path><path d="M58 15h-1v1c0 1.654-1.346 3-3 3H42c-1.654 0-3-1.346-3-3v-1H6c-1.654 0-3 1.346-3 3v32c0 1.654 1.346 3 3 3h43V41h12V18c0-1.654-1.346-3-3-3zM6 20a2 2 0 1 1 3.999-.001A2 2 0 0 1 6 20zm31 9h-4v2h4v2h-4v2h4v2h-4v2h4v2h-4v2h4v2h-4c0 1.103-.897 2-2 2v4h-2v-4h-2v4h-2v-4h-2v4h-2v-4h-2v4h-2v-4h-2v4h-2v-4c-1.103 0-2-.897-2-2H7v-2h4v-2H7v-2h4v-2H7v-2h4v-2H7v-2h4v-2H7v-2h4c0-1.103.897-2 2-2v-4h2v4h2v-4h2v4h2v-4h2v4h2v-4h2v4h2v-4h2v4c1.103 0 2 .897 2 2h4zm8-7a3 3 0 1 1 0 6 3 3 0 0 1 0-6zm-2 28a3 3 0 1 1 0-6 3 3 0 0 1 0 6zm15-12H42v-6h16zm-3-10a3 3 0 1 1 0-6 3 3 0 0 1 0 6z" fill="#ffffff" opacity="1" data-original="#000000" class=""></path></g></svg>