<svg enable-background="new 0 0 512 512" viewBox="0 0 512 512" xmlns="http://www.w3.org/2000/svg"><g id="_x32_6_Microcontroller"><g><path d="m380.014 150.122-18.087-18.136c-.931-.882-2.206-1.422-3.48-1.422h-204.844c-1.323 0-2.549.54-3.48 1.422l-18.087 18.136c-.931.932-1.47 2.157-1.47 3.481v204.794c0 1.324.539 2.549 1.47 3.481l18.087 18.137c.931.882 2.157 1.421 3.48 1.421h204.844c1.275 0 2.549-.539 3.48-1.421l18.087-18.137c.931-.932 1.422-2.157 1.422-3.481v-204.794c0-1.324-.491-2.549-1.422-3.481zm-8.382 206.266-15.245 15.244h-200.775l-15.244-15.244v-200.776l15.244-15.245h200.775l15.245 15.245z"/><path d="m487.607 246.049c10.147 0 18.382-8.235 18.382-18.382s-8.235-18.382-18.382-18.382h-62.399v-19.901h62.399c10.147 0 18.382-8.235 18.382-18.382 0-10.146-8.235-18.382-18.382-18.382h-62.399v-17.156c0-1.324-.539-2.549-1.47-3.48l-43.724-43.723c-.931-.932-2.157-1.422-3.48-1.422h-17.107v-62.446c0-10.147-8.235-18.382-18.382-18.382-10.146 0-18.382 8.235-18.382 18.382v62.448h-19.901v-62.448c0-10.147-8.284-18.382-18.382-18.382-10.146 0-18.382 8.235-18.382 18.382v62.448h-19.95v-62.448c0-10.147-8.235-18.382-18.382-18.382-10.098 0-18.382 8.235-18.382 18.382v62.448h-19.901v-62.448c0-10.147-8.235-18.382-18.382-18.382s-18.382 8.235-18.382 18.382v62.448h-17.156c-1.274 0-2.5.49-3.431 1.422l-43.724 43.723c-.931.931-1.47 2.156-1.47 3.48v17.107h-62.445c-10.147 0-18.382 8.235-18.382 18.382s8.235 18.382 18.382 18.382h62.448v19.95h-62.448c-10.147 0-18.382 8.235-18.382 18.382 0 10.098 8.235 18.382 18.382 18.382h62.448v19.901h-62.448c-10.147 0-18.382 8.235-18.382 18.382 0 10.146 8.235 18.382 18.382 18.382h62.448v19.901h-62.448c-10.147 0-18.382 8.235-18.382 18.382 0 10.146 8.235 18.382 18.382 18.382h62.448v17.156c0 1.324.539 2.549 1.47 3.481l43.724 43.723c.931.931 2.157 1.422 3.431 1.422h17.107v62.448c0 5.049 2.059 9.656 5.392 12.989s7.941 5.392 12.99 5.392c10.147 0 18.431-8.235 18.431-18.382v-62.448h19.901v62.448c0 5.049 2.059 9.656 5.392 12.989s7.892 5.392 12.99 5.392c10.146 0 18.382-8.235 18.382-18.382v-62.448h19.901v62.448c0 5.049 2.059 9.656 5.392 12.989s7.892 5.392 12.99 5.392c10.146 0 18.382-8.235 18.382-18.382v-62.448h19.901v62.448c0 5.049 2.059 9.656 5.392 12.989s7.941 5.392 12.99 5.392c10.147 0 18.382-8.235 18.382-18.382v-62.448h17.156c1.323 0 2.549-.491 3.48-1.422l43.724-43.723c.931-.932 1.47-2.157 1.47-3.481v-17.107h62.399c10.147 0 18.382-8.284 18.382-18.382 0-10.146-8.235-18.382-18.382-18.382h-62.399v-19.95h62.399c10.147 0 18.382-8.235 18.382-18.382 0-10.098-8.235-18.382-18.382-18.382h-62.399v-19.901h62.396zm-62.399-83.624h35.293v17.156h-35.293zm0 56.665h35.293v17.156h-35.293zm-338.367 130.484h-35.342v-17.156h35.341v17.156zm0-56.664h-35.342v-17.156h35.341v17.156zm0-56.664h-35.342v-17.156h35.341v17.156zm0-56.714h-35.342v-17.156h35.341v17.156zm245.626-128.033h17.156v35.341h-17.156zm-56.664 0h17.156v35.341h-17.156zm-56.713 0h17.156v35.341h-17.156zm-56.664 0h17.156v35.341h-17.156zm17.156 409.002h-17.205v-35.341h17.205zm56.664 0h-17.156v-35.341h17.156zm56.664 0h-17.156v-35.341h17.156zm56.664 0h-17.156v-35.341h17.156zm65.831-85.977-40.881 40.832h-236.999l-40.881-40.832v-237.048l40.881-40.831h236.999l40.881 40.831zm45.096-42.057v17.156h-35.293v-17.156zm0-56.713v17.156h-35.293v-17.156z"/></g></g><g id="Layer_1"/></svg>