<svg xmlns="http://www.w3.org/2000/svg" version="1.1" xmlns:xlink="http://www.w3.org/1999/xlink" width="512" height="512" x="0" y="0" viewBox="0 0 60 60" style="enable-background:new 0 0 512 512" xml:space="preserve" class=""><g><g fill="none" fill-rule="evenodd"><path fill="#c4a3e6" d="m59 2.273-.5 6.442a1.39 1.39 0 0 1-2.37.881l-1.45-1.451-9.642 9.655a4.006 4.006 0 0 1-5.659 0l-4.463-4.465a1 1 0 0 0-1.414 0L18.831 28.012a4 4 0 0 1-5.66 0l-2.463-2.464a1 1 0 0 0-1.413 0l-4.883 4.875c-.783.77-2.037.77-2.82 0a1.977 1.977 0 0 1 0-2.821l5.58-5.592a4 4 0 0 1 5.659 0L16 25.181 31.38 9.8a4 4 0 0 1 5.659 0l4.461 4.46a1 1 0 0 0 1.415 0l8.942-8.946-1.45-1.45a1.385 1.385 0 0 1 .88-2.361L57.737 1A1.189 1.189 0 0 1 59 2.273z" opacity="1" data-original="#a4c2f7" class=""></path><path fill="#a381db" d="m57.737 1-2.3.178c.376.232.593.654.563 1.095l-.5 6.442c-.01.068-.025.135-.046.2l.676.677a1.39 1.39 0 0 0 2.37-.881l.5-6.438A1.189 1.189 0 0 0 57.737 1z" opacity="1" data-original="#7facfa" class=""></path><rect width="16" height="4" x="2" y="55" fill="#f0ebfa" rx="2" opacity="1" data-original="#e8edfc" class=""></rect><path fill="#d5c8f0" d="M16 55h-3a2 2 0 1 1 0 4h3a2 2 0 1 0 0-4z" opacity="1" data-original="#cad9fc" class=""></path><path fill="#f0ebfa" d="M38 53a2 2 0 0 0-2-2 2 2 0 1 0 0-4H24a2 2 0 1 0 0 4 2 2 0 1 0 0 4 2 2 0 1 0 0 4h12a2 2 0 1 0 0-4 2 2 0 0 0 2-2z" opacity="1" data-original="#e8edfc" class=""></path><path fill="#d5c8f0" d="M38 53a2 2 0 0 0-2-2 2 2 0 1 0 0-4h-3a2 2 0 1 1 0 4 2 2 0 1 1 0 4 2 2 0 1 1 0 4h3a2 2 0 1 0 0-4 2 2 0 0 0 2-2z" opacity="1" data-original="#cad9fc" class=""></path><circle cx="30" cy="38" r="9" fill="#f0ebfa" opacity="1" data-original="#e8edfc" class=""></circle><path fill="#d5c8f0" d="M30 29a9.045 9.045 0 0 0-1.5.135 8.989 8.989 0 0 1 0 17.73A9 9 0 1 0 30 29z" opacity="1" data-original="#cad9fc" class=""></path><path fill="#f0ebfa" d="M58 45a2 2 0 0 0-2-2 2 2 0 1 0 0-4H44a2 2 0 1 0 0 4 2 2 0 1 0 0 4 2 2 0 1 0 0 4 2 2 0 1 0 0 4 2 2 0 1 0 0 4h12a2 2 0 1 0 0-4 2 2 0 1 0 0-4 2 2 0 1 0 0-4 2 2 0 0 0 2-2z" opacity="1" data-original="#e8edfc" class=""></path><path fill="#d5c8f0" d="M58 45a2 2 0 0 0-2-2 2 2 0 1 0 0-4h-3a2 2 0 1 1 0 4 2 2 0 1 1 0 4 2 2 0 1 1 0 4 2 2 0 1 1 0 4 2 2 0 1 1 0 4h3a2 2 0 1 0 0-4 2 2 0 1 0 0-4 2 2 0 1 0 0-4 2 2 0 0 0 2-2z" opacity="1" data-original="#cad9fc" class=""></path><circle cx="50" cy="30" r="9" fill="#f0ebfa" opacity="1" data-original="#e8edfc" class=""></circle><path fill="#d5c8f0" d="M50 21a9.045 9.045 0 0 0-1.5.135 8.989 8.989 0 0 1 0 17.73A9 9 0 1 0 50 21z" opacity="1" data-original="#cad9fc" class=""></path><circle cx="10" cy="46" r="9" fill="#f0ebfa" opacity="1" data-original="#e8edfc" class=""></circle><path fill="#d5c8f0" d="M10 37a9.045 9.045 0 0 0-1.5.135 8.989 8.989 0 0 1 0 17.73A9 9 0 1 0 10 37z" opacity="1" data-original="#cad9fc" class=""></path><path fill="#ffffff" d="m4.412 30.423.1-.1a1.969 1.969 0 0 1 .08-2.723l5.58-5.592c.38-.38.832-.68 1.33-.88a4.006 4.006 0 0 0-4.33.88L1.592 27.6a1.975 1.975 0 0 0 0 2.821c.782.77 2.037.77 2.82.002zM8.5 54.865A7.85 7.85 0 0 0 10 55a9.045 9.045 0 0 0 1.5-.135 8.989 8.989 0 0 1 0-17.73A9.045 9.045 0 0 0 10 37a8.343 8.343 0 0 0-1.5.139 8.989 8.989 0 0 0 0 17.73zM7 55H4a2 2 0 1 0 0 4h3a2 2 0 1 1 0-4z" opacity="1" data-original="#ffffff" class=""></path><path fill="#ffffff" d="m3.7 38.237 1.261 1.553A8.071 8.071 0 0 0 2 46H0a10.081 10.081 0 0 1 3.7-7.763z" opacity="1" data-original="#ffffff" class=""></path><g fill="#428dff"><path fill-rule="nonzero" d="M3 32a2.994 2.994 0 0 0 2.122-.877L10 26.254l2.463 2.465a5 5 0 0 0 7.074 0l14.672-14.677 4.462 4.464a5.007 5.007 0 0 0 7.075 0l8.932-8.944.742.742a2.391 2.391 0 0 0 4.074-1.511l.5-6.441v-.01A2.191 2.191 0 0 0 57.66.006l-6.447.5A2.383 2.383 0 0 0 49.7 4.57l.742.744-8.235 8.239-4.461-4.464a5 5 0 0 0-7.074 0L16 23.767 13.539 21.3a5.006 5.006 0 0 0-7.075 0L.889 26.89A2.992 2.992 0 0 0 3 32zm-.7-3.7 5.579-5.591a3 3 0 0 1 4.245 0l3.169 3.171a1 1 0 0 0 1.415 0L32.086 10.5a3.073 3.073 0 0 1 4.246 0l4.462 4.464a2.048 2.048 0 0 0 2.829 0l8.941-8.946a1 1 0 0 0 0-1.413l-1.453-1.453a.358.358 0 0 1-.087-.4.378.378 0 0 1 .341-.255L57.808 2c.05-.002.1.017.134.054.04.038.06.091.058.146l-.5 6.44a.391.391 0 0 1-.666.249l-1.449-1.451a1.03 1.03 0 0 0-1.415 0l-9.639 9.653a3.078 3.078 0 0 1-4.245 0l-4.462-4.464a1.988 1.988 0 0 0-1.415-.587c-.53 0-1.039.21-1.413.586L18.124 27.305a3.074 3.074 0 0 1-4.246 0l-2.463-2.465a2 2 0 0 0-2.827 0l-4.883 4.875a1.008 1.008 0 0 1-1.41 0 .976.976 0 0 1 0-1.4zM40 38a10 10 0 1 0-15.975 8H24a2.987 2.987 0 0 0-2.22 5 2.954 2.954 0 0 0 0 4A2.987 2.987 0 0 0 24 60h12a2.987 2.987 0 0 0 2.22-5 2.954 2.954 0 0 0 0-4A2.987 2.987 0 0 0 36 46h-.025A9.982 9.982 0 0 0 40 38zm-3 15a1 1 0 0 1-1 1H24a1 1 0 0 1 0-2h12a1 1 0 0 1 1 1zm-1 5H24a1 1 0 0 1 0-2h12a1 1 0 0 1 0 2zm0-10a1 1 0 0 1 0 2H24a1 1 0 0 1 0-2zM22 38a8 8 0 1 1 8 8 8.009 8.009 0 0 1-8-8z" fill="#7a44cf" opacity="1" data-original="#428dff" class=""></path><path d="M30 37a1 1 0 1 1 .867-1.5 1 1 0 1 0 1.731-1A3 3 0 0 0 31 33.2V33a1 1 0 0 0-2 0v.184A2.993 2.993 0 0 0 30 39a1 1 0 1 1-.867 1.5 1 1 0 0 0-1.731 1 3 3 0 0 0 1.6 1.3v.2a1 1 0 0 0 2 0v-.184A2.993 2.993 0 0 0 30 37z" fill="#7a44cf" opacity="1" data-original="#428dff" class=""></path><path fill-rule="nonzero" d="M50 20a9.988 9.988 0 0 0-5.975 18H44a2.987 2.987 0 0 0-2.22 5 2.954 2.954 0 0 0 0 4 2.954 2.954 0 0 0 0 4 2.954 2.954 0 0 0 0 4A2.987 2.987 0 0 0 44 60h12a2.987 2.987 0 0 0 2.22-5 2.954 2.954 0 0 0 0-4 2.954 2.954 0 0 0 0-4 2.954 2.954 0 0 0 0-4A2.987 2.987 0 0 0 56 38h-.026A9.987 9.987 0 0 0 50 20zm7 25a1 1 0 0 1-1 1H44a1 1 0 0 1 0-2h12a1 1 0 0 1 1 1zm0 4a1 1 0 0 1-1 1H44a1 1 0 0 1 0-2h12a1 1 0 0 1 1 1zm0 4a1 1 0 0 1-1 1H44a1 1 0 0 1 0-2h12a1 1 0 0 1 1 1zm-1 5H44a1 1 0 0 1 0-2h12a1 1 0 0 1 0 2zm0-18a1 1 0 0 1 0 2H44a1 1 0 0 1 0-2zm-6-2a8 8 0 1 1 8-8 8.009 8.009 0 0 1-8 8z" fill="#7a44cf" opacity="1" data-original="#428dff" class=""></path><path d="M50 29a1 1 0 1 1 .867-1.5 1 1 0 0 0 1.731-1A2.993 2.993 0 0 0 51 25.2V25a1 1 0 0 0-2 0v.184A2.993 2.993 0 0 0 50 31a1 1 0 1 1-.867 1.5 1 1 0 0 0-1.731 1c.363.61.93 1.07 1.6 1.3v.2a1 1 0 0 0 2 0v-.184A2.993 2.993 0 0 0 50 29zM1.887 43.114a1 1 0 0 1-.011-2h.011a1 1 0 0 1 0 2z" fill="#7a44cf" opacity="1" data-original="#428dff" class=""></path><path fill-rule="nonzero" d="M4.025 54H4a3 3 0 0 0 0 6h12a3 3 0 0 0 0-6h-.025A9.988 9.988 0 0 0 10 36c-2.293.01-4.514.799-6.3 2.237a.967.967 0 0 0-.109 1.448c.368.371.952.414 1.37.1A8.107 8.107 0 0 1 10 38a8 8 0 1 1-8 8 1 1 0 0 0-2 0 9.982 9.982 0 0 0 4.025 8zM16 56a1 1 0 0 1 0 2H4a1 1 0 0 1 0-2z" fill="#7a44cf" opacity="1" data-original="#428dff" class=""></path><path d="M10 40a1 1 0 0 0-1 1v.184A2.993 2.993 0 0 0 10 47a1 1 0 1 1-.867 1.5 1 1 0 1 0-1.731 1 3 3 0 0 0 1.6 1.3v.2a1 1 0 0 0 2 0v-.184A2.993 2.993 0 0 0 10 45a1 1 0 1 1 .867-1.5 1 1 0 1 0 1.731-1A3 3 0 0 0 11 41.2V41a1 1 0 0 0-1-1z" fill="#7a44cf" opacity="1" data-original="#428dff" class=""></path></g></g></g></svg>