<svg height="512" viewBox="0 0 24 24" width="512" xmlns="http://www.w3.org/2000/svg"><g id="Layer_2" data-name="Layer 2"><path d="m15.764 6.5h-7.528a1.738 1.738 0 0 0 -1.736 1.736v12.528a1.738 1.738 0 0 0 1.736 1.736h7.528a1.738 1.738 0 0 0 1.736-1.736v-12.528a1.738 1.738 0 0 0 -1.736-1.736zm.736 14.264a.737.737 0 0 1 -.736.736h-7.528a.737.737 0 0 1 -.736-.736v-12.528a.737.737 0 0 1 .736-.736h7.528a.737.737 0 0 1 .736.736z"/><path d="m9.351 3.526a3.593 3.593 0 0 1 4.958 0 .5.5 0 0 0 .7-.712 4.507 4.507 0 0 0 -6.362 0 .5.5 0 1 0 .7.712z"/><path d="m10.062 4.241a.5.5 0 1 0 .716.7 1.517 1.517 0 0 1 2.1 0 .5.5 0 1 0 .717-.7 2.54 2.54 0 0 0 -3.533 0z"/><path d="m12 14.5a2.5 2.5 0 1 0 2.5 2.5 2.5 2.5 0 0 0 -2.5-2.5zm0 4a1.5 1.5 0 1 1 1.5-1.5 1.5 1.5 0 0 1 -1.5 1.5z"/><path d="m10 10.5h1a.5.5 0 0 0 0-1h-1a.5.5 0 0 0 0 1z"/><path d="m10 12.5h1a.5.5 0 0 0 0-1h-1a.5.5 0 0 0 0 1z"/><path d="m14 9.5h-1a.5.5 0 0 0 0 1h1a.5.5 0 0 0 0-1z"/><path d="m14 11.5h-1a.5.5 0 0 0 0 1h1a.5.5 0 0 0 0-1z"/></g></svg>