<?xml version="1.0" encoding="iso-8859-1"?>
<!-- Generator: Adobe Illustrator 19.0.0, SVG Export Plug-In . SVG Version: 6.00 Build 0)  -->
<svg version="1.1" id="Capa_1" xmlns="http://www.w3.org/2000/svg" xmlns:xlink="http://www.w3.org/1999/xlink" x="0px" y="0px"
	 viewBox="0 0 512 512" style="enable-background:new 0 0 512 512;" xml:space="preserve" fill="currentColor">
<g>
	<g>
		<g>
			<path d="M255.999,192c-47.061,0-85.333,38.272-85.333,85.333v149.333c0,47.061,38.272,85.333,85.333,85.333
				s85.333-38.272,85.333-85.333V277.333C341.332,230.272,303.06,192,255.999,192z M319.999,426.667c0,35.285-28.715,64-64,64
				s-64-28.715-64-64V277.333c0-35.285,28.715-64,64-64s64,28.715,64,64V426.667z"/>
			<path d="M255.999,234.667c-23.531,0-42.667,19.136-42.667,42.667c0,23.531,19.136,42.667,42.667,42.667
				s42.667-19.136,42.667-42.667C298.665,253.803,279.529,234.667,255.999,234.667z M255.999,298.667
				c-11.776,0-21.333-9.557-21.333-21.333S244.223,256,255.999,256c11.776,0,21.333,9.557,21.333,21.333
				S267.775,298.667,255.999,298.667z"/>
			<path d="M402.345,62.592C363.263,22.229,311.295,0,255.999,0S148.735,22.229,109.673,62.613
				c-4.117,4.224-3.989,10.965,0.235,15.083c4.224,4.117,11.051,3.989,15.083-0.256c35.029-36.181,81.557-56.107,131.008-56.107
				s95.979,19.925,131.008,56.107c2.069,2.155,4.864,3.243,7.659,3.243c2.667,0,5.355-1.003,7.424-3.008
				C406.313,73.579,406.441,66.816,402.345,62.592z"/>
			<path d="M255.999,64.064c-38.784,0-75.2,15.531-102.549,43.797c-4.096,4.224-3.968,10.965,0.256,15.083
				c4.245,4.096,11.029,3.989,15.083-0.256c23.275-24.043,54.251-37.291,87.211-37.291s63.936,13.248,87.211,37.291
				c2.091,2.176,4.864,3.243,7.659,3.243c2.667,0,5.355-1.003,7.424-3.008c4.224-4.096,4.352-10.859,0.256-15.083
				C331.199,79.595,294.783,64.064,255.999,64.064z"/>
			<path d="M212.585,167.957c23.211-24,63.616-24,86.827,0c2.091,2.176,4.885,3.243,7.659,3.243c2.667,0,5.355-1.003,7.424-3.008
				c4.224-4.096,4.352-10.859,0.256-15.083c-31.296-32.384-86.208-32.384-117.504,0c-4.096,4.245-3.968,10.987,0.256,15.104
				C201.727,172.331,208.511,172.181,212.585,167.957z"/>
		</g>
	</g>
</g>
<g>
</g>
<g>
</g>
<g>
</g>
<g>
</g>
<g>
</g>
<g>
</g>
<g>
</g>
<g>
</g>
<g>
</g>
<g>
</g>
<g>
</g>
<g>
</g>
<g>
</g>
<g>
</g>
<g>
</g>
</svg>
