<svg height="512pt" viewBox="-121 0 512 512.0005" width="512pt" xmlns="http://www.w3.org/2000/svg"><path d="m89.382812 75.433594c-6.570312 5.046875-7.804687 14.464844-2.757812 21.035156s14.460938 7.804688 21.03125 2.757812c16.101562-12.363281 38.589844-12.363281 54.6875 0 6.578125 5.050782 15.992188 3.808594 21.035156-2.757812 5.046875-6.570312 3.808594-15.988281-2.761718-21.035156-26.859376-20.628906-64.375-20.628906-91.234376 0zm0 0"/><path d="m71.597656 51.269531c37.332032-28.382812 89.472656-28.382812 126.804688 0 6.59375 5.015625 16.003906 3.730469 21.019531-2.863281s3.730469-16.007812-2.863281-21.019531c-48.019532-36.515625-115.09375-36.515625-163.117188 0-6.59375 5.011719-7.875 14.425781-2.859375 21.019531 5.011719 6.59375 14.421875 7.875 21.015625 2.863281zm0 0"/><path d="m225 120.972656h-180c-24.8125 0-45 20.1875-45 45.003906v301.019532c0 24.816406 20.1875 45.003906 45 45.003906h180c24.8125 0 45-20.1875 45-45.003906v-301.019532c0-24.816406-20.1875-45.003906-45-45.003906zm15 346.023438c0 8.273437-6.730469 15.003906-15 15.003906h-180c-8.269531 0-15-6.730469-15-15.003906v-301.019532c0-8.273437 6.730469-15 15-15h180c8.269531 0 15 6.726563 15 15zm0 0"/><path d="m90 195.976562c0 8.285157-6.714844 15.003907-15 15.003907s-15-6.71875-15-15.003907c0-8.28125 6.714844-15 15-15s15 6.71875 15 15zm0 0"/><path d="m150 195.976562c0 8.285157-6.714844 15.003907-15 15.003907s-15-6.71875-15-15.003907c0-8.28125 6.714844-15 15-15s15 6.71875 15 15zm0 0"/><path d="m210 195.976562c0 8.285157-6.714844 15.003907-15 15.003907s-15-6.71875-15-15.003907c0-8.28125 6.714844-15 15-15s15 6.71875 15 15zm0 0"/><path d="m90 255.984375c0 8.28125-6.714844 15-15 15s-15-6.71875-15-15c0-8.285156 6.714844-15.003906 15-15.003906s15 6.71875 15 15.003906zm0 0"/><path d="m150 255.984375c0 8.28125-6.714844 15-15 15s-15-6.71875-15-15c0-8.285156 6.714844-15.003906 15-15.003906s15 6.71875 15 15.003906zm0 0"/><path d="m210 255.984375c0 8.28125-6.714844 15-15 15s-15-6.71875-15-15c0-8.285156 6.714844-15.003906 15-15.003906s15 6.71875 15 15.003906zm0 0"/><path d="m135 300.984375c-41.355469 0-75 33.648437-75 75.007813 0 41.355468 33.644531 75.003906 75 75.003906s75-33.648438 75-75.003906c0-41.359376-33.644531-75.007813-75-75.007813zm0 120.011719c-24.8125 0-45-20.191406-45-45.003906 0-24.816407 20.1875-45.003907 45-45.003907s45 20.1875 45 45.003907c0 24.8125-20.1875 45.003906-45 45.003906zm0 0"/></svg>