<svg id="Layer_1" enable-background="new 0 0 512 512" height="512" viewBox="0 0 512 512" width="512" xmlns="http://www.w3.org/2000/svg"><path d="m495.568 444.507-43.922-10.113c-1.723-.397-3.53-.211-5.137.527l-20.403 9.382h-132.284c-1.329-8.058-8.324-14.229-16.753-14.229h-48.093c3.483-6.625 6.254-13.581 8.276-20.784l13.643-5.252h151.614c9.211 16.878 26.894 27.519 46.424 27.518 20.042 0 38.128-11.112 47.199-29 1.257-2.48 1.137-5.436-.318-7.805s-4.036-3.813-6.817-3.813h-40.52l-7.088-12.275 7.088-12.277 40.52.001c2.781 0 5.362-1.444 6.817-3.813s1.576-5.324.318-7.805c-9.071-17.889-27.157-29.001-47.198-29-.001 0-.001 0-.003 0-19.529 0-37.211 10.641-46.421 27.518h-9.37l41.763-41.763c7.515-7.516 11.325-16.714 11.325-27.342v-211.936c0-21.321-17.346-38.668-38.667-38.668h-8.333v-9.912c0-8.639-7.028-15.666-15.667-15.666h-15.203c-8.639 0-15.667 7.027-15.667 15.666v9.912h-38.71v-9.912c0-8.639-7.028-15.666-15.667-15.666h-15.204c-8.639 0-15.667 7.027-15.667 15.666v9.912h-38.71v-9.912c0-8.639-7.028-15.666-15.667-15.666h-15.202c-8.639 0-15.667 7.027-15.667 15.666v9.912h-38.71v-9.912c0-8.639-7.028-15.666-15.667-15.666h-15.202c-8.639 0-15.667 7.027-15.667 15.666v9.912h-8.333c-21.321 0-38.667 17.347-38.667 38.668v217.024l-14.555 14.555c-2.34 2.341-2.998 5.88-1.655 8.904l6.678 15.036c-4.17 7.416-7.428 15.273-9.723 23.45l-15.343 5.906c-3.088 1.188-5.126 4.156-5.126 7.466v31.329c0 3.31 2.038 6.277 5.126 7.466l15.34 5.904c2.296 8.183 5.554 16.041 9.723 23.456l-6.676 15.031c-1.344 3.024-.686 6.563 1.654 8.904l22.153 22.153c2.339 2.34 5.879 2.996 8.904 1.654l15.038-6.679c7.416 4.17 15.274 7.428 23.448 9.722l5.906 15.345c1.188 3.088 4.156 5.126 7.466 5.126h31.329c1.052 0 2.061-.226 2.998-.606.94.388 1.97.605 3.05.605h121.381c8.428 0 15.424-6.172 16.753-14.229l132.284.001 20.404 9.381c1.055.485 2.195.731 3.342.731.601 0 1.203-.067 1.795-.204l43.922-10.112c3.632-.836 6.205-4.069 6.205-7.796v-29.468c.001-3.725-2.572-6.958-6.204-7.794zm-263.013-140.682-5.217-5.217v-26.848h41.501v41.501h-34.865l.236-.531c1.343-3.025.685-6.564-1.655-8.905zm-5.217-89.567h41.501v41.502h-41.501zm-16 41.502h-41.501v-41.502h41.501zm115.002 0h-41.501v-41.502h41.501zm-41.501 16h41.501v41.501h-41.501zm57.501-57.502h41.502v41.502h-41.502zm41.502-16h-41.502v-41.501h41.502zm-57.502 0h-41.501v-41.501h41.501zm-57.501 0h-41.501v-41.501h41.501zm-57.501 0h-41.501v-41.501h41.501zm-57.502 0h-41.501v-41.501h41.501zm-41.501 16h41.501v41.502h-41.501zm57.501 57.502h41.501v10.849l-.937-.937c-2.34-2.34-5.88-2.994-8.904-1.654l-15.037 6.68c-5.328-2.996-10.886-5.512-16.624-7.547v-7.391zm164.504 57.501c4.418 0 8-3.582 8-8v-49.501h49.502c4.418 0 8-3.582 8-8v-115.003c0-4.418-3.582-8-8-8h-287.507c-4.418 0-8 3.582-8 8v131.039c-5.109 1.915-10.069 4.216-14.845 6.902l-15.037-6.68c-.165-.073-.336-.117-.503-.179v-163.333h364.276v167.674c0 1.639-.154 3.203-.448 4.703h-48.287c-8.639 0-15.667 7.028-15.667 15.667v48.286c-1.5.295-3.064.448-4.703.448h-118.493l-5.371-2.067c-2.141-7.631-5.132-14.98-8.909-21.956zm84.572-24.378-37.087 37.087v-37.087zm-11.387 64.401c3.221 0 6.127-1.932 7.375-4.901 5.773-13.739 19.131-22.617 34.032-22.616 8.885-.001 17.219 3.131 23.739 8.618l-28.815-.001c-2.858 0-5.5 1.525-6.928 4l-11.706 20.277c-1.429 2.476-1.429 5.525 0 8l11.707 20.275c1.429 2.476 4.07 4 6.928 4h28.814c-6.52 5.486-14.854 8.618-23.74 8.618-14.9.001-28.258-8.877-34.031-22.616-1.248-2.97-4.155-4.901-7.375-4.901h-149.802v-18.753zm-38.835-345.284h14.536v45.839h-14.536zm-85.247 0h14.536v45.839h-14.536zm-85.246 0h14.536v45.839h-14.536zm-85.247 0h14.536v45.839h-14.536zm-24.333 25.578h8.333v20.594c0 8.639 7.028 15.667 15.667 15.667h15.202c8.639 0 15.667-7.028 15.667-15.667v-20.594h38.71v20.594c0 8.639 7.028 15.667 15.667 15.667h15.202c8.639 0 15.667-7.028 15.667-15.667v-20.594h38.71v20.594c0 8.639 7.028 15.667 15.667 15.667h15.203c8.639 0 15.667-7.028 15.667-15.667v-20.594h38.71v20.594c0 8.639 7.028 15.667 15.667 15.667h15.203c8.639 0 15.667-7.028 15.667-15.667v-20.594h8.333c12.499 0 22.667 10.169 22.667 22.668v28.26h-364.276v-28.26c0-12.499 10.168-22.668 22.667-22.668zm35.187 438.422-5.41-14.056c-.947-2.462-3.048-4.298-5.614-4.908-9.392-2.235-18.336-5.943-26.583-11.021-2.247-1.383-5.031-1.571-7.441-.499l-13.776 6.118-14.385-14.385 6.116-13.771c1.071-2.411.884-5.195-.5-7.442-5.076-8.242-8.785-17.188-11.023-26.591-.611-2.566-2.447-4.666-4.909-5.613l-14.05-5.408v-20.343l14.054-5.41c2.461-.947 4.298-3.048 4.909-5.614 2.235-9.394 5.944-18.339 11.022-26.584 1.383-2.247 1.57-5.031.5-7.442l-6.118-13.775 14.385-14.385 13.776 6.119c2.411 1.071 5.196.883 7.442-.5 8.247-5.078 17.19-8.786 26.583-11.021 2.566-.61 4.666-2.446 5.614-4.908l5.411-14.056h20.343l5.41 14.056c.947 2.462 3.048 4.298 5.614 4.908 9.393 2.235 18.336 5.943 26.582 11.021 2.247 1.385 5.031 1.569 7.443.5l13.776-6.119 14.385 14.385-6.116 13.771c-1.071 2.411-.884 5.195.499 7.442 5.079 8.246 8.788 17.192 11.023 26.59.61 2.566 2.447 4.667 4.909 5.614l14.05 5.408v20.344l-14.055 5.41c-2.461.947-4.298 3.048-4.909 5.613-2.235 9.394-5.943 18.337-11.021 26.583-1.383 2.246-1.57 5.03-.5 7.441l6.119 13.777-14.385 14.385-13.77-6.116c-2.413-1.072-5.197-.886-7.442.5-8.246 5.077-17.192 8.786-26.591 11.023-2.566.61-4.667 2.446-5.614 4.908l-5.41 14.051zm154.264-.999c0 .531-.467.998-.999.998h-113.381v-4.667c7.936-2.283 15.568-5.467 22.778-9.522l15.031 6.677c3.026 1.344 6.564.686 8.904-1.654l22.153-22.153c2.34-2.341 2.998-5.88 1.655-8.904l-.756-1.701h43.615c.532 0 .999.467.999.998v39.928zm207.705-11.598-35.059 8.071-19.517-8.973c-1.048-.481-2.188-.731-3.342-.731l-133.789-.001v-13.467h133.789c1.154 0 2.294-.25 3.342-.731l19.516-8.974 35.059 8.072v16.734zm-289.16-95.151c0-34.538-28.099-62.638-62.638-62.638-34.538 0-62.637 28.1-62.637 62.638s28.099 62.638 62.637 62.638 62.638-28.1 62.638-62.638zm-62.638 46.638c-25.716 0-46.637-20.922-46.637-46.638s20.921-46.638 46.637-46.638 46.638 20.922 46.638 46.638-20.922 46.638-46.638 46.638z"/></svg>